<svg xmlns="http://www.w3.org/2000/svg" xmlns:xlink="http://www.w3.org/1999/xlink" version="1.1" width="1000" height="1000" viewBox="0 0 1000 1000" xml:space="preserve">
<desc>Created with Fabric.js 3.5.0</desc>
<defs>
</defs>
<rect x="0" y="0" width="100%" height="100%" fill="#ffffff"/>
<g transform="matrix(0.0696 0 0 0.0402 449.6159 778.4987)" id="695232">
<path style="stroke: rgb(4,31,49); stroke-width: 100; stroke-dasharray: none; stroke-linecap: butt; stroke-dashoffset: 0; stroke-linejoin: miter; stroke-miterlimit: 4; is-custom-font: none; font-file-url: none; fill: none; fill-rule: nonzero; opacity: 1;" vector-effect="non-scaling-stroke" transform=" translate(-46.5001, -78.5)" d="M 2.6167 78.5 C 2.6167 57.2341 7.7391 38.064 15.8764 24.2946 C 24.0482 10.4665 34.9664 2.5 46.5001 2.5 C 58.0338 2.5 68.952 10.4665 77.1238 24.2946 C 85.2611 38.064 90.3835 57.2341 90.3835 78.5 C 90.3835 99.7659 85.2611 118.936 77.1238 132.705 C 68.952 146.533 58.0338 154.5 46.5001 154.5 C 34.9664 154.5 24.0482 146.533 15.8764 132.705 C 7.7391 118.936 2.6167 99.7659 2.6167 78.5 Z" stroke-linecap="round"/>
</g>
<g transform="matrix(0.2003 0 0 0.2003 491.0194 778.498)" id="72792">
<g style="">
		<g transform="matrix(7.9745 0 0 7.9745 7.5757 1.9936)" id="561733" clip-path="url(#CLIPPATH_17)">
<clipPath id="CLIPPATH_17">
	<path transform="matrix(1 0 0 1 442.6227 401.4831) translate(-542, -421)" id="cp1" d="m -141 -17 h 1366 v 876 h -1366 z" stroke-linecap="round"/>
</clipPath>
<path style="stroke: none; stroke-width: 0; stroke-dasharray: none; stroke-linecap: butt; stroke-dashoffset: 0; stroke-linejoin: miter; stroke-miterlimit: 4; is-custom-font: none; font-file-url: none; fill: rgb(69,171,189); fill-rule: nonzero; opacity: 1;" transform=" translate(-99.3773, -19.5169)" d="m 111.2 9.7 l -14.5 -4.8 c -1.7 -0.5 -3.6 0.3 -4.3 2 l -6.8 16.4 c -0.9 2.1 -0.1 4.5 1.9 5.1 l 17.3 5.7 c 2 0.7 4 -0.7 4.6 -3 l 4 -17.2 c 0.5 -1.8 -0.6 -3.6 -2.2 -4.2 z" stroke-linecap="round"/>
</g>
		<g transform="matrix(7.9745 0 0 7.9745 -6.5147 -2.3924)" id="903704" clip-path="url(#CLIPPATH_18)">
<clipPath id="CLIPPATH_18">
	<path transform="matrix(1 0 0 1 444.3897 402.0331) translate(-542, -421)" id="cp1" d="m -141 -17 h 1366 v 876 h -1366 z" stroke-linecap="round"/>
</clipPath>
<path style="stroke: none; stroke-width: 0; stroke-dasharray: none; stroke-linecap: butt; stroke-dashoffset: 0; stroke-linejoin: miter; stroke-miterlimit: 4; is-custom-font: none; font-file-url: none; fill: rgb(81,199,219); fill-rule: nonzero; opacity: 1;" transform=" translate(-97.6103, -18.9669)" d="m 109.5 9.2 l -14.4 -4.8 c -1.7 -0.5 -3.6 0.3 -4.3 2 l -7.1 16.2 c -0.9 2.2 -0.1 4.5 1.9 5.2 l 17.3 5.7 c 1.9 0.7 4 -0.7 4.6 -3 l 4.3 -17.2 c 0.4 -1.7 -0.6 -3.5 -2.3 -4.1 z" stroke-linecap="round"/>
</g>
		<g transform="matrix(7.9745 0 0 7.9745 10.5479 -4.9195)" id="563992" clip-path="url(#CLIPPATH_19)">
<clipPath id="CLIPPATH_19">
	<path transform="matrix(1 0 0 1 442.25 402.35) translate(-542, -421)" id="cp1" d="m -141 -17 h 1366 v 876 h -1366 z" stroke-linecap="round"/>
</clipPath>
<path style="stroke: none; stroke-width: 0; stroke-dasharray: none; stroke-linecap: butt; stroke-dashoffset: 0; stroke-linejoin: miter; stroke-miterlimit: 4; is-custom-font: none; font-file-url: none; fill: rgb(255,255,255); fill-rule: nonzero; opacity: 1;" transform=" translate(-99.75, -18.65)" d="m 99.7 23.3 q 0.4 0 0.8 0 q 0.2 0.1 0.3 0.1 c 0.4 0 0.7 0.3 0.8 0.8 q 0 0 0 0 q 0 0.3 0 0.6 q -0.1 0.3 -0.1 0.6 q 0 0 0 0 c -0.1 0.4 -0.4 0.7 -0.8 0.7 q -0.1 0 -0.2 0 q -0.4 0.1 -0.8 0.1 q -0.4 0 -0.9 -0.1 q -0.1 0 -0.2 0 c -0.4 0 -0.7 -0.3 -0.8 -0.7 q 0 0 0 0 q 0 -0.3 0 -0.6 q -0.1 -0.3 0 -0.7 q 0 0 0 0 c 0 -0.4 0.3 -0.7 0.8 -0.7 q 0.1 -0.1 0.2 -0.1 q 0.4 0 0.9 0 z m -2.4 -11.3 c 0 -0.4 0.3 -0.8 0.8 -0.9 q 0.2 0 0.4 0 q 0.7 0 1.2 0 q 0.6 0 1.2 0 q 0.2 0 0.5 0 c 0.4 0.1 0.8 0.5 0.8 1 l -0.7 8.8 c 0 0.4 -0.3 0.8 -0.7 0.8 q -0.2 0 -0.3 0.1 q -0.4 0 -0.8 0 q -0.5 0 -1.1 -0.1 c -0.4 0 -0.7 -0.4 -0.8 -0.8 c 0 0 -0.5 -8.9 -0.5 -8.9 z" stroke-linecap="round"/>
</g>
</g>
</g>
<g transform="matrix(0.1987 0 0 0.1987 406.7272 778.498)" id="958180">
<g style="">
		<g transform="matrix(7.9745 0 0 7.9745 5.5898 3.6854)" id="703514" clip-path="url(#CLIPPATH_20)">
<clipPath id="CLIPPATH_20">
	<path transform="matrix(1 0 0 1 479.7547 401.8634) translate(-542, -421)" id="cp1" d="m -141 -17 h 1366 v 876 h -1366 z" stroke-linecap="round"/>
</clipPath>
<path style="stroke: none; stroke-width: 0; stroke-dasharray: none; stroke-linecap: butt; stroke-dashoffset: 0; stroke-linejoin: miter; stroke-miterlimit: 4; is-custom-font: none; font-file-url: none; fill: rgb(235,147,59); fill-rule: nonzero; opacity: 1;" transform=" translate(-62.2453, -19.1366)" d="m 62.3 33.4 l -12.7 -6.9 c -1.5 -0.8 -2.2 -2.7 -1.5 -4.2 l 6.9 -15.4 c 0.9 -2.1 3.1 -3 4.8 -2 l 15.2 8.1 c 1.8 1 2.2 3.3 0.9 5.2 l -9.2 14.1 c -1 1.4 -2.9 1.9 -4.4 1.1 z" stroke-linecap="round"/>
</g>
		<g transform="matrix(7.9745 0 0 7.9745 -6.6879 -3.1897)" id="313205" clip-path="url(#CLIPPATH_21)">
<clipPath id="CLIPPATH_21">
	<path transform="matrix(1 0 0 1 481.2943 402.7255) translate(-542, -421)" id="cp1" d="m -141 -17 h 1366 v 876 h -1366 z" stroke-linecap="round"/>
</clipPath>
<path style="stroke: none; stroke-width: 0; stroke-dasharray: none; stroke-linecap: butt; stroke-dashoffset: 0; stroke-linejoin: miter; stroke-miterlimit: 4; is-custom-font: none; font-file-url: none; fill: rgb(255,193,49); fill-rule: nonzero; opacity: 1;" transform=" translate(-60.7057, -18.2745)" d="m 60.9 32.6 l -12.8 -6.9 c -1.4 -0.7 -2.1 -2.6 -1.4 -4.2 l 6.6 -15.5 c 0.9 -2 3.1 -3 4.8 -2.1 l 15.2 8.2 c 1.8 1 2.2 3.3 1 5.2 l -9.1 14.2 c -0.9 1.4 -2.8 1.9 -4.3 1.1 z" stroke-linecap="round"/>
</g>
		<g transform="matrix(7.9745 0 0 7.9745 -12.3153 2.197)" id="934238" clip-path="url(#CLIPPATH_22)">
<clipPath id="CLIPPATH_22">
	<path transform="matrix(1 0 0 1 482 402.05) translate(-542, -421)" id="cp1" d="m -141 -17 h 1366 v 876 h -1366 z" stroke-linecap="round"/>
</clipPath>
<path style="stroke: none; stroke-width: 0; stroke-dasharray: none; stroke-linecap: butt; stroke-dashoffset: 0; stroke-linejoin: miter; stroke-miterlimit: 4; is-custom-font: none; font-file-url: none; fill: rgb(255,255,255); fill-rule: nonzero; opacity: 1;" transform=" translate(-60, -18.95)" d="m 57.3 21.6 v -3.2 c 0 -0.3 0.3 -0.5 0.5 -0.5 h 2.2 c 0.9 0 1.6 -0.8 1.6 -1.6 c 0 -0.9 -0.7 -1.7 -1.6 -1.7 h -3.2 c -0.9 0 -1.6 -0.7 -1.6 -1.6 c 0 -0.9 0.7 -1.6 1.6 -1.6 h 3.7 q 4.3 0 4.3 4.3 v 1.1 q 0 4.3 -4.3 4.3 v 0.5 c 0 0.3 -0.2 0.6 -0.5 0.6 h -2.1 c -0.3 0 -0.6 -0.3 -0.6 -0.6 z m 3.2 2.2 v 2.1 c 0 0.3 -0.2 0.6 -0.5 0.6 h -2.2 c -0.2 0 -0.5 -0.3 -0.5 -0.6 v -2.1 c 0 -0.3 0.3 -0.6 0.5 -0.6 h 2.2 c 0.3 0 0.5 0.3 0.5 0.6 z" stroke-linecap="round"/>
</g>
</g>
</g>
<g transform="matrix(0.3373 0 0 0.3373 449.62 778.5033)" id="537930">
<g style="">
		<g transform="matrix(7.9745 0 0 7.9745 9.1706 -0.0001)" id="209705" clip-path="url(#CLIPPATH_23)">
<clipPath id="CLIPPATH_23">
	<path transform="matrix(1 0 0 1 460.25 402.2) translate(-542, -421)" id="cp1" d="m -141 -17 h 1366 v 876 h -1366 z" stroke-linecap="round"/>
</clipPath>
<path style="stroke: none; stroke-width: 0; stroke-dasharray: none; stroke-linecap: butt; stroke-dashoffset: 0; stroke-linejoin: miter; stroke-miterlimit: 4; is-custom-font: none; font-file-url: none; fill: rgb(134,176,38); fill-rule: nonzero; opacity: 1;" transform=" translate(-81.75, -18.8)" d="m 81.7 32.1 c -6.9 0 -12.6 -5.9 -12.6 -13.3 c 0 -7.4 5.7 -13.3 12.6 -13.3 c 7 0 12.7 5.9 12.7 13.3 c 0 7.4 -5.7 13.3 -12.7 13.3 z" stroke-linecap="round"/>
</g>
		<g transform="matrix(7.9745 0 0 7.9745 -9.1707 -0.0001)" id="542096" clip-path="url(#CLIPPATH_24)">
<clipPath id="CLIPPATH_24">
	<path transform="matrix(1 0 0 1 462.55 402.2) translate(-542, -421)" id="cp1" d="m -141 -17 h 1366 v 876 h -1366 z" stroke-linecap="round"/>
</clipPath>
<path style="stroke: none; stroke-width: 0; stroke-dasharray: none; stroke-linecap: butt; stroke-dashoffset: 0; stroke-linejoin: miter; stroke-miterlimit: 4; is-custom-font: none; font-file-url: none; fill: rgb(164,215,46); fill-rule: nonzero; opacity: 1;" transform=" translate(-79.45, -18.8)" d="m 79.4 32.1 c -6.9 0 -12.6 -5.9 -12.6 -13.3 c 0 -7.4 5.7 -13.3 12.6 -13.3 c 7 0 12.7 5.9 12.7 13.3 c 0 7.4 -5.7 13.3 -12.7 13.3 z" stroke-linecap="round"/>
</g>
		<g transform="matrix(7.9745 0 0 7.9745 -5.4304 -1.4952)" id="715658" clip-path="url(#CLIPPATH_25)">
<clipPath id="CLIPPATH_25">
	<path transform="matrix(1 0 0 1 462.081 402.3875) translate(-542, -421)" id="cp1" d="m -141 -17 h 1366 v 876 h -1366 z" stroke-linecap="round"/>
</clipPath>
<path style="stroke: none; stroke-width: 0; stroke-dasharray: none; stroke-linecap: butt; stroke-dashoffset: 0; stroke-linejoin: miter; stroke-miterlimit: 4; is-custom-font: none; font-file-url: none; fill: rgb(255,255,255); fill-rule: nonzero; opacity: 1;" transform=" translate(-79.919, -18.6125)" d="m 72.3 17.5 c -0.8 0.8 -0.8 2.3 0 3.1 l 4 3.9 c 0.7 0.7 2 0.7 2.7 0 l 8.5 -8.7 c 0.9 -0.8 0.8 -2.2 0 -3 c -0.8 -0.8 -2 -0.8 -2.8 0 l -6.6 6.8 c -0.3 0.3 -0.6 0.3 -0.9 0 l -2.1 -2.1 c -0.8 -0.8 -2 -0.8 -2.8 0 z" stroke-linecap="round"/>
</g>
</g>
</g>
</svg>