<svg version="1.2" xmlns="http://www.w3.org/2000/svg" viewBox="0 0 40 32" width="40" height="32">
	<title>Untitled-svg</title>
	<defs>
		<clipPath clipPathUnits="userSpaceOnUse" id="cp1">
			<path d="m-81.65-1.49h651.31v422.41h-651.31z"/>
		</clipPath>
		<clipPath clipPathUnits="userSpaceOnUse" id="cp2">
			<path d="m-81.65-1.49h651.31v422.41h-651.31z"/>
		</clipPath>
		<clipPath clipPathUnits="userSpaceOnUse" id="cp3">
			<path d="m-81.65-1.49h651.31v422.41h-651.31z"/>
		</clipPath>
		<clipPath clipPathUnits="userSpaceOnUse" id="cp4">
			<path d="m-88.45-1.06h646.11v419.03h-646.11z"/>
		</clipPath>
		<clipPath clipPathUnits="userSpaceOnUse" id="cp5">
			<path d="m-88.45-1.06h646.11v419.03h-646.11z"/>
		</clipPath>
		<clipPath clipPathUnits="userSpaceOnUse" id="cp6">
			<path d="m-88.45-1.06h646.11v419.03h-646.11z"/>
		</clipPath>
		<clipPath clipPathUnits="userSpaceOnUse" id="cp7">
			<path d="m-157.78-13.07h1096.8v711.33h-1096.8z"/>
		</clipPath>
		<clipPath clipPathUnits="userSpaceOnUse" id="cp8">
			<path d="m-157.78-13.07h1096.8v711.33h-1096.8z"/>
		</clipPath>
		<clipPath clipPathUnits="userSpaceOnUse" id="cp9">
			<path d="m-157.78-13.07h1096.8v711.33h-1096.8z"/>
		</clipPath>
	</defs>
	<style>
		.s0 { fill: #030718 } 
		.s1 { fill: none;stroke: #041f31;stroke-width: 1.6 } 
		.s2 { fill: #45abbd } 
		.s3 { fill: #51c7db } 
		.s4 { fill: #ffffff } 
		.s5 { fill: #eb933b } 
		.s6 { fill: #ffc131 } 
		.s7 { fill: #86b026 } 
		.s8 { fill: #a4d72e } 
	</style>
	<g id="429444">
		<g id="Layer">
			<path id="Shape 1" class="s0" d="m20.3 31.4c-8.4 0-15.2-6.9-15.2-15.4 0-8.5 6.8-15.4 15.2-15.4 8.4 0 15.2 6.9 15.2 15.4 0 8.5-6.8 15.4-15.2 15.4z"/>
			<g id="695232">
				<path id="Layer" fill-rule="evenodd" class="s1" d="m19.2 16q0-0.4 0.3-0.7 0.3-0.2 0.7-0.2 0.3 0 0.6 0.2 0.3 0.3 0.3 0.7 0 0.4-0.3 0.7-0.3 0.2-0.6 0.2-0.4 0-0.7-0.2-0.3-0.3-0.3-0.7z"/>
			</g>
			<g id="72792">
				<g id="Layer">
					<g id="Clip-Path: 561733" clip-path="url(#cp1)">
						<g id="561733">
							<path id="Layer" class="s2" d="m38.6 11.4l-6.9-2.3c-0.8-0.3-1.7 0.1-2.1 0.9l-3.2 7.9c-0.4 1.1-0.1 2.2 0.9 2.5l8.2 2.8c1 0.3 2-0.4 2.2-1.5l1.9-8.3c0.3-0.9-0.2-1.7-1-2z"/>
						</g>
					</g>
					<g id="Clip-Path: 903704" clip-path="url(#cp2)">
						<g id="903704">
							<path id="Layer" class="s3" d="m37.8 11.1l-6.9-2.3c-0.8-0.2-1.7 0.2-2 1l-3.4 7.8c-0.4 1.1-0.1 2.2 0.9 2.5l8.2 2.8c0.9 0.3 1.9-0.4 2.2-1.5l2.1-8.3c0.2-0.8-0.3-1.7-1.1-2z"/>
						</g>
					</g>
					<g id="Clip-Path: 563992" clip-path="url(#cp3)">
						<g id="563992">
							<path id="Layer" class="s4" d="m33.1 17.9q0.2 0 0.4 0 0.1 0.1 0.1 0.1c0.2 0 0.4 0.1 0.4 0.4q0 0.1 0 0.3 0 0.1 0 0.3c-0.1 0.2-0.2 0.3-0.4 0.3q-0.1 0-0.1 0-0.2 0-0.4 0-0.2 0-0.4 0-0.1 0-0.1 0c-0.2 0-0.3-0.1-0.4-0.3q0-0.2 0-0.3 0-0.2 0-0.4c0-0.2 0.2-0.3 0.4-0.3q0-0.1 0.1-0.1 0.2 0 0.4 0zm-1.1-5.4c0-0.2 0.1-0.4 0.4-0.4q0 0 0.1 0 0.4 0 0.6 0 0.3 0 0.6 0 0.1 0 0.2 0c0.2 0 0.4 0.2 0.4 0.4l-0.3 4.3c0 0.2-0.2 0.4-0.4 0.4q-0.1 0-0.1 0-0.2 0-0.4 0-0.2 0-0.5 0c-0.2 0-0.3-0.2-0.4-0.4z"/>
						</g>
					</g>
				</g>
			</g>
			<g id="958180">
				<g id="Layer">
					<g id="Clip-Path: 703514" clip-path="url(#cp4)">
						<g id="703514">
							<path id="Layer" class="s5" d="m7.7 23l-6-3.3c-0.7-0.3-1-1.2-0.7-2l3.3-7.3c0.4-1 1.4-1.5 2.2-1l7.2 3.9c0.9 0.5 1.1 1.6 0.4 2.5l-4.3 6.7c-0.5 0.7-1.4 0.9-2.1 0.5z"/>
						</g>
					</g>
					<g id="Clip-Path: 313205" clip-path="url(#cp5)">
						<g id="313205">
							<path id="Layer" class="s6" d="m7 22.7l-6-3.3c-0.7-0.4-1-1.3-0.7-2l3.1-7.5c0.5-0.9 1.5-1.4 2.3-1l7.2 4c0.9 0.4 1 1.5 0.5 2.4l-4.3 6.8c-0.4 0.7-1.3 0.9-2.1 0.6z"/>
						</g>
					</g>
					<g id="Clip-Path: 934238" clip-path="url(#cp6)">
						<g id="934238">
							<path id="Layer" class="s4" d="m5.3 17.4v-1.5c0-0.2 0.2-0.3 0.3-0.3h1c0.4 0 0.8-0.4 0.8-0.7 0-0.5-0.4-0.8-0.8-0.8h-1.5c-0.4 0-0.8-0.4-0.8-0.8 0-0.4 0.4-0.8 0.8-0.8h1.8q2 0 2 2.1v0.5q0 2.1-2 2.1v0.2c0 0.1-0.1 0.3-0.3 0.3h-1c-0.1 0-0.3-0.2-0.3-0.3zm0 0.8h1.6v1.5h-1.6z"/>
						</g>
					</g>
				</g>
			</g>
			<g id="537930">
				<g id="Layer">
					<g id="Clip-Path: 209705" clip-path="url(#cp7)">
						<g id="209705">
							<path id="Layer" class="s7" d="m21.1 26.8c-5.6 0-10.2-4.8-10.2-10.8 0-6 4.6-10.8 10.2-10.8 5.6 0 10.1 4.8 10.1 10.8 0 6-4.5 10.8-10.1 10.8z"/>
						</g>
					</g>
					<g id="Clip-Path: 542096" clip-path="url(#cp8)">
						<g id="542096">
							<path id="Layer" class="s8" d="m19.2 26.8c-5.6 0-10.1-4.8-10.1-10.8 0-6 4.5-10.8 10.1-10.8 5.6 0 10.2 4.8 10.2 10.8 0 6-4.6 10.8-10.2 10.8z"/>
						</g>
					</g>
					<g id="Clip-Path: 715658" clip-path="url(#cp9)">
						<g id="715658">
							<path id="Layer" class="s4" d="m13.5 14.9c-0.7 0.7-0.7 1.9 0 2.6l3.2 3.1c0.6 0.6 1.6 0.6 2.2 0l6.8-7c0.7-0.7 0.6-1.8 0-2.5-0.7-0.6-1.6-0.6-2.3 0l-5.3 5.6q-0.3 0.3-0.7 0l-1.7-1.8c-0.6-0.6-1.6-0.6-2.2 0z"/>
						</g>
					</g>
				</g>
			</g>
		</g>
	</g>
</svg>